<?xml version="1.0" encoding="UTF-8"?>
<svg id="Layer_2" data-name="Layer 2" xmlns="http://www.w3.org/2000/svg" viewBox="0 0 28.22 34.76">
  <defs>
    <style>
      .cls-1 {
        fill: none;
        stroke: #000;
        stroke-miterlimit: 10;
      }
    </style>
  </defs>
  <g id="Layer_2-2" data-name="Layer 2">
    <g>
      <path class="cls-1" d="M26.44,13.78h0c-1.8-2.1-4.89-2.45-7.1-.89l3.47-2.99c2.22-1.92,2.48-5.31,.57-7.54h0C21.46,.13,18.08-.13,15.86,1.79L2.35,13.45C.13,15.36-.13,18.76,1.78,20.99h0c1.8,2.1,4.89,2.45,7.1,.89l-3.47,2.99c-2.22,1.92-2.48,5.31-.57,7.54h0c1.91,2.23,5.29,2.49,7.51,.57l13.51-11.66c2.22-1.92,2.48-5.31,.57-7.54Z"/>
      <polygon points="19.8 18.56 15.79 20.91 11.78 23.26 11.78 18.56 11.78 13.86 15.79 16.21 19.8 18.56"/>
    </g>
  </g>
</svg>